<svg id="Capa_1" data-name="Capa 1" xmlns="http://www.w3.org/2000/svg" viewBox="0 0 34.51 34.33"><path d="M20.2,22.29h0c0-.19,0-.19.17-.19h3.52c.08,0,.11,0,.12-.1.06-.4.12-.79.19-1.18l.39-2.41c.06-.37.12-.74.17-1.11a.34.34,0,0,0-.2,0H20.4c-.23,0-.21,0-.21-.2V13.89a3.49,3.49,0,0,1,.14-1,1.65,1.65,0,0,1,.71-1,2.57,2.57,0,0,1,1.19-.38,5.22,5.22,0,0,1,.79,0h1.87c.14,0,.14,0,.14-.14V7.21c0-.13,0-.13-.12-.15-.75-.11-1.5-.21-2.26-.27a13.63,13.63,0,0,0-2.12,0,6.91,6.91,0,0,0-3,.89,5.73,5.73,0,0,0-2.6,3.22,3.72,3.72,0,0,0-.19.65c-.06.31-.11.62-.14.93a12.2,12.2,0,0,0-.06,1.35v3.3c0,.16,0,.16-.17.16H10.39c-.23,0-.21,0-.21.21v1.6a1.15,1.15,0,0,1,0,.19H.41a.89.89,0,0,0-.28,0,1.91,1.91,0,0,1-.06-.48A17.45,17.45,0,0,1,.73,12.3,17.47,17.47,0,0,1,10.15,1.55,17.13,17.13,0,0,1,26.79,2.89a17.26,17.26,0,0,1,6.46,7.89c.2.51.37,1,.54,1.56s.26.93.37,1.41a16.25,16.25,0,0,1,.29,2c0,.23,0,.46,0,.69,0,.06,0,.11,0,.16v1.32a.49.49,0,0,0,0,.21,16.4,16.4,0,0,1-.7,4.17.16.16,0,0,1,0,.1.37.37,0,0,0-.25-.07H20.2Z" style="fill:#223873"/><path d="M.13,19.29a.89.89,0,0,1,.28,0h9.76c0,.18,0,.37,0,.55V22q0,.11.09.09h4.06c.17,0,.17,0,.17.17V34.12c0,.22-.05.24-.25.2a17.34,17.34,0,0,1-5.48-2A17.49,17.49,0,0,1,2.37,26,16.83,16.83,0,0,1,.26,20.23C.21,19.92.15,19.61.13,19.29Z" style="fill:#223873"/><path d="M20.2,22.29H33.49a.37.37,0,0,1,.25.07,7.91,7.91,0,0,1-.36,1.07A17.32,17.32,0,0,1,30,28.93c-.25.27-.51.5-.77.76a17.21,17.21,0,0,1-6.71,4.06,18.68,18.68,0,0,1-2.23.57l-.13,0-.07,0c.16-.05.13-.17.13-.28V22.49C20.19,22.43,20.2,22.36,20.2,22.29Z" style="fill:#223873"/></svg>