<svg id="Capa_1" data-name="Capa 1" xmlns="http://www.w3.org/2000/svg" viewBox="0 0 34.51 34.33"><path d="M0,25.6V8.81c0-.12.05-.24.07-.36A8.72,8.72,0,0,1,1.21,4.9,9.38,9.38,0,0,1,9.7,0c5,0,10.08,0,15.12,0a8.71,8.71,0,0,1,1.91.17,9.33,9.33,0,0,1,7.5,7.07c.14.5.19,1,.29,1.55V25.6c-.06.35-.1.7-.18,1a9.37,9.37,0,0,1-7.11,7.46c-.5.14-1,.19-1.54.28H8.83c-.35,0-.71-.09-1-.17A9.37,9.37,0,0,1,.29,27.14C.15,26.64.1,26.11,0,25.6Zm3.06-8.4v7.46A7,7,0,0,0,3.41,27,6.44,6.44,0,0,0,9.7,31.34c5,0,10.07,0,15.1,0A7.15,7.15,0,0,0,27.05,31a6.34,6.34,0,0,0,4.4-6.28c0-5,0-10,0-15a7.37,7.37,0,0,0-.34-2.24,6.36,6.36,0,0,0-6.24-4.4c-5.06,0-10.13,0-15.19,0a6.36,6.36,0,0,0-5.4,2.72A6.45,6.45,0,0,0,3.06,9.72C3.07,12.21,3.06,14.71,3.06,17.2Z" style="fill:#223873"/><path d="M17.27,8.34a8.86,8.86,0,1,1-8.9,8.86A8.91,8.91,0,0,1,17.27,8.34Zm5.81,8.86A5.83,5.83,0,1,0,17.26,23,5.81,5.81,0,0,0,23.08,17.2Z" style="fill:#223873"/><path d="M26.53,5.76A2.23,2.23,0,1,1,24.28,8,2.25,2.25,0,0,1,26.53,5.76Z" style="fill:#223873"/></svg>