<svg id="Capa_1" data-name="Capa 1" xmlns="http://www.w3.org/2000/svg" viewBox="0 0 34.51 34.33"><path d="M15.92,0H18.7c.7.12,1.41.21,2.11.36A16.94,16.94,0,0,1,34.29,19.72C32.59,30.45,21,36.91,10.75,32.7a5.3,5.3,0,0,0-3.87-.21c-2.22.68-4.48,1.24-6.73,1.84H0c.74-2.71,1.5-5.41,2.21-8.13a2,2,0,0,0-.14-1.27,17.72,17.72,0,0,1-1.9-6.84A17,17,0,0,1,13,.58C14,.33,14.94.19,15.92,0ZM4.1,30.28c1.68-.44,3.19-.82,4.7-1.24a1.55,1.55,0,0,1,1.35.16A13.5,13.5,0,0,0,19,31.07,14.21,14.21,0,0,0,31.47,14.49,13.46,13.46,0,0,0,22.14,3.58a13.7,13.7,0,0,0-14,2.5,13.87,13.87,0,0,0-3,18.24,1.72,1.72,0,0,1,.19,1.49C4.92,27.23,4.54,28.68,4.1,30.28Z" style="fill:#223873"/><path d="M8.45,13.21A4.57,4.57,0,0,1,10,9.73a2.36,2.36,0,0,1,1.21-.55C12.33,9,12.59,9.23,13,10.3c.34.85.63,1.72,1.05,2.53a1.37,1.37,0,0,1-.18,1.61C12.75,16,12.76,16,14,17.59a11.89,11.89,0,0,0,4.65,3.55,1,1,0,0,0,1.45-.32c.31-.43.72-.8,1-1.24a.82.82,0,0,1,1.13-.32c1.13.49,2.25,1,3.34,1.57a1.08,1.08,0,0,1,.37.82,3.6,3.6,0,0,1-3.23,3.41c-2.25.32-4.2-.55-6.09-1.53A17.91,17.91,0,0,1,10.53,18,9.3,9.3,0,0,1,8.6,14.26C8.54,13.91,8.5,13.56,8.45,13.21Z" style="fill:#223873"/></svg>