<svg id="Capa_1" data-name="Capa 1" xmlns="http://www.w3.org/2000/svg" viewBox="0 0 33.04 28.67"><path d="M16.48,28.67H7.29A3.55,3.55,0,0,1,3.52,24.9V15a3.6,3.6,0,0,1,1.7-3.21l10.45-7a1.25,1.25,0,0,1,1.69,0l10.49,7a3.54,3.54,0,0,1,1.66,3.11c0,3.36,0,6.72,0,10.07a3.54,3.54,0,0,1-3.69,3.7Zm4.76-2.36h4.49c1,0,1.42-.44,1.42-1.42,0-3.27,0-6.55,0-9.82a1.53,1.53,0,0,0-.75-1.41q-4.82-3.19-9.59-6.42a.45.45,0,0,0-.59,0C13,9.41,9.76,11.57,6.52,13.74a1.32,1.32,0,0,0-.64,1.2V25a1.21,1.21,0,0,0,1.33,1.33h4.24l.34,0v-.43c0-1.45,0-2.9,0-4.35a3.44,3.44,0,0,1,2.92-3.39A22.4,22.4,0,0,1,17.56,18a3.53,3.53,0,0,1,3.68,3.66c0,1.39,0,2.78,0,4.17Zm-2.36,0c0-1.6,0-3.17,0-4.73a1.15,1.15,0,0,0-1.18-1.16H15.47a1.19,1.19,0,0,0-1.32,1.33V26c0,.11,0,.21,0,.32Z" style="fill:#27357e"/><path d="M23.61,4.11c0-.5,0-.93,0-1.37A2.36,2.36,0,0,1,26,.31h1.11a2.36,2.36,0,0,1,2.37,2.37c0,1.73,0,3.47,0,5.2a.57.57,0,0,0,.28.54q1.38.93,2.73,1.89a1.17,1.17,0,0,1-1,2.1,1.68,1.68,0,0,1-.55-.28L17.61,2.85l-.31-.21a1.23,1.23,0,0,0-1.62,0l-10.1,7Q3.75,10.93,1.91,12.2A1.18,1.18,0,0,1,0,11.45a1.22,1.22,0,0,1,.6-1.22l7-4.84L14.25.76a3.57,3.57,0,0,1,4.48,0l4.53,3.12C23.35,4,23.45,4,23.61,4.11ZM26,2.68s0,.06,0,.09c0,1,0,1.89,0,2.84,0,.06,0,.16.07.19.35.26.71.5,1.08.76V2.68Z" style="fill:#27357e"/></svg>