<svg id="Capa_1" data-name="Capa 1" xmlns="http://www.w3.org/2000/svg" viewBox="0 0 33.04 28.67">
<path d="M31.56,7.85c-.78.61-1.49,1.16-2.19,1.72-2.53,2-4.7,4-7.23,6a5.66,5.66,0,0,1-5.58,0L9.71,10.14c-.2-.16-.43-.28-.71-.46-.25.14-.72.38-1.14.67a1.77,1.77,0,0,0-.59,2,2.4,2.4,0,0,0,.29.77l3.19,5.51A2.59,2.59,0,0,0,12,19.67a1.51,1.51,0,0,0,1.55-.07c.36-.23.74-.43,1.11-.64a2.87,2.87,0,0,1,3.42.25,4.89,4.89,0,0,1,.77.74,13.83,13.83,0,0,1,2.63,4.59,4,4,0,0,1,.13,1.19,1.57,1.57,0,0,1-.87,1.4c-3.78,2.24-7.45,1.9-11-.53A12.77,12.77,0,0,1,6,22.67c-1.51-2.48-3-5-4.37-7.54A12.67,12.67,0,0,1,0,7.94,9.18,9.18,0,0,1,4.49.6c.14-.09.29-.16.42-.25A1.93,1.93,0,0,1,7.39.59,7.54,7.54,0,0,1,9.14,2.84c.36.67.71,1.35,1,2,.1.21.24.21.42.21H30.67a2.51,2.51,0,0,1,1.62.47A1.78,1.78,0,0,1,33,7V20.75A2,2,0,0,1,31,22.68c-2.3,0-4.6,0-6.89,0a.75.75,0,0,1-.8-.74.74.74,0,0,1,.78-.75h6.68c.69,0,.83-.15.83-.83V7.85Zm-16,19.29a7.82,7.82,0,0,0,3.69-.88c1-.55,1.06-.67.62-1.77a13.49,13.49,0,0,0-2.2-3.58,4.33,4.33,0,0,0-.62-.59,1.28,1.28,0,0,0-1.63-.1,13.73,13.73,0,0,1-1.29.73A3.06,3.06,0,0,1,13,21.3,3.62,3.62,0,0,1,9.5,19.39Q7.84,16.6,6.25,13.77a4.29,4.29,0,0,1-.5-1.46A3.18,3.18,0,0,1,7.4,8.88c.42-.21.8-.47,1.2-.69A1.15,1.15,0,0,0,9.21,7a2.43,2.43,0,0,0-.1-.61A12.77,12.77,0,0,0,6.79,2.07a2.74,2.74,0,0,0-.58-.49.5.5,0,0,0-.38,0,7.21,7.21,0,0,0-1,.59A7.84,7.84,0,0,0,1.5,8.53a11.73,11.73,0,0,0,1.49,6C4.34,17,5.77,19.39,7.21,21.8a11.88,11.88,0,0,0,2.26,2.69A9.14,9.14,0,0,0,15.55,27.14ZM30.76,6.58H10.69a3,3,0,0,1-.48,2.08L10.7,9l6.69,5.26c2.14,1.68,4.47-.42,3.95,0,2.24-1.76,4.12-3.53,6.37-5.29Z" style="fill:#27357e"/>
</svg>