<svg id="Capa_1" data-name="Capa 1" xmlns="http://www.w3.org/2000/svg" viewBox="0 0 33.04 28.67">
    <path d="M7.44,26.57V25.52a9,9,0,0,1,2.19.15l5.82,1.88a4.16,4.16,0,0,0,3.33-.26q6.41-3.37,12.79-6.77l.11-.08a2.27,2.27,0,0,0-2.8-1c-.7.26-1.37.57-2.05.85l-5.58,2.36a2.16,2.16,0,0,1-.75.17H15.14l-.15,0v-1H20.3a1,1,0,0,0,1.16-1,1,1,0,0,0-1.11-1c-1.24,0-2.47,0-3.71,0a3.92,3.92,0,0,1-1.78-.39c-1-.47-2-.9-3-1.35a3.85,3.85,0,0,0-1.73-.37c-.9,0-1.8,0-2.72,0v-1s0,0,0,0c1.24,0,2.5,0,3.72.11a9.12,9.12,0,0,1,2.19.83c.74.32,1.47.68,2.21,1a1.94,1.94,0,0,0,.75.16c1.23,0,2.47.06,3.71,0A2.18,2.18,0,0,1,22.53,21a2.2,2.2,0,0,0,.34-.13l5.3-2.23A3.43,3.43,0,0,1,33,20.91l-.3.18q-6.62,3.5-13.24,7a5.53,5.53,0,0,1-4.55.38c-1.9-.63-3.82-1.23-5.73-1.84a2.08,2.08,0,0,0-.5-.07Z" style="fill:#27357e"/>
    <path d="M12.36,12.4c.19-.83.37-1.58.54-2.32.13-.58.25-1.16.41-1.73a.39.39,0,0,0-.14-.44c-.95-.88-1.9-1.78-2.87-2.65-.25-.23-.09-.41-.05-.63s.19-.24.37-.25c1.31-.11,2.62-.23,3.93-.32.21,0,.28-.14.35-.3C15.44,2.59,16,1.43,16.52.25,16.64,0,16.82,0,17,0a.38.38,0,0,1,.44.26c.49,1.2,1,2.4,1.51,3.59a.38.38,0,0,0,.36.28l3.74.46c.41,0,.57.2.59.61a.51.51,0,0,1-.2.32c-1,.84-1.92,1.68-2.9,2.51a.45.45,0,0,0-.17.49c.26,1.26.49,2.53.75,3.79.06.26-.06.36-.23.49s-.31.2-.54.06c-1.08-.68-2.19-1.32-3.28-2a.48.48,0,0,0-.57,0c-1.12.64-2.25,1.26-3.39,1.87a.43.43,0,0,1-.35,0A2.58,2.58,0,0,1,12.36,12.4Zm9.53-6.88-.2,0c-1-.12-2-.25-2.94-.35a.57.57,0,0,1-.54-.4c-.35-.87-.73-1.73-1.09-2.6,0-.09-.09-.18-.16-.31-.47,1-.92,1.94-1.34,2.89a.53.53,0,0,1-.5.35c-.61,0-1.21.1-1.81.15l-1.39.13c.85.78,1.63,1.52,2.43,2.24a.41.41,0,0,1,.13.44c-.24,1-.47,2-.7,3a.69.69,0,0,0,0,.21c.85-.47,1.68-.89,2.47-1.38a.94.94,0,0,1,1.19,0c.78.52,1.61,1,2.45,1.48,0-.09,0-.15,0-.2-.19-1-.37-2-.58-3a.49.49,0,0,1,.2-.54Z" style="fill:#27357e"/>
    <path d="M22.76,8.08l-.08-1c.07,0,.12-.05.17,0,.5.07.69-.23.87-.63.36-.83.76-1.65,1.15-2.47.08-.18.16-.35.43-.34a.54.54,0,0,1,.57.36c.39,1,.81,1.89,1.2,2.85a.42.42,0,0,0,.39.29c1,.11,2.05.24,3.07.37a.54.54,0,0,1,.35.87,1.25,1.25,0,0,1-.23.23c-.7.61-1.38,1.22-2.1,1.81a.59.59,0,0,0-.21.66c.21,1,.37,2,.59,2.93.09.38-.18.45-.36.62s-.31,0-.44-.06c-.9-.53-1.79-1.06-2.68-1.61a.42.42,0,0,0-.49,0l-2.79,1.55c-.17.1-.31.14-.44,0s-.41-.2-.31-.55c.27-1,.51-2.09.73-3.14a.48.48,0,0,0-.13-.39c-.23-.25-.49-.47-.76-.73L22,8.85c.44.41.87.78,1.26,1.2.09.09.08.34,0,.5-.16.77-.34,1.54-.54,2.4.76-.43,1.45-.8,2.14-1.2a.63.63,0,0,1,.71,0c.66.42,1.34.81,2.08,1.25,0-.23-.06-.41-.1-.59-.11-.61-.21-1.21-.35-1.81a.58.58,0,0,1,.22-.65L29,8.62c.09-.07.16-.15.3-.28L26.44,8,25.35,5.36c-.36.77-.7,1.45-1,2.14a.71.71,0,0,1-.73.51C23.35,8,23.08,8.05,22.76,8.08Z" style="fill:#27357e"/>
    <path d="M6,13c.74-.42,1.44-.8,2.13-1.2a.65.65,0,0,1,.72,0c.67.42,1.36.83,2.09,1.27-.15-.82-.28-1.59-.45-2.35a.67.67,0,0,1,.26-.76c.3-.23.57-.48.87-.73l.68.77a3.41,3.41,0,0,1-.41.36.6.6,0,0,0-.27.76C11.82,12,12,13,12.2,14c.08.36-.18.43-.36.6s-.32,0-.46-.05c-.91-.55-1.81-1.1-2.72-1.62a.48.48,0,0,0-.42,0c-.94.5-1.88,1-2.79,1.55-.32.19-.44-.06-.64-.17s-.17-.24-.13-.42c.26-1,.51-2.09.74-3.14a.46.46,0,0,0-.13-.37c-.8-.75-1.62-1.48-2.42-2.23-.07-.07-.05-.26,0-.38,0-.33.18-.47.56-.49,1,0,2-.15,3.05-.26a.48.48,0,0,0,.35-.23c.47-1,.92-2,1.36-3,.12-.28.36-.18.55-.2A.41.41,0,0,1,9,3.78c.39.87.79,1.75,1.14,2.65.17.45.37.73.89.69a1.86,1.86,0,0,1,.38.06l-.12,1c-.5,0-1-.09-1.48-.16-.09,0-.18-.18-.23-.29-.29-.66-.57-1.32-.85-2l-.17-.37c-.33.71-.67,1.39-1,2.08A.8.8,0,0,1,6.82,8c-.64,0-1.28.1-1.92.15l-.34.06c.57.53,1.08,1,1.64,1.51a.84.84,0,0,1,.29,1C6.31,11.45,6.16,12.17,6,13Z" style="fill:#27357e"/>
    <path d="M0,28.43v-1H5.22V16.3H0v-1H5.06c.84,0,1.22.38,1.22,1.23q0,5.36,0,10.7c0,.85-.39,1.24-1.23,1.24H0Z" style="fill:#27357e"/>
    <path d="M2.41,25.76a.73.73,0,1,1,1.45,0,.73.73,0,0,1-1.45,0Z" style="fill:#27357e"/>
</svg>